<svg width="24" height="24" viewBox="0 0 24 24" fill="none" xmlns="http://www.w3.org/2000/svg"><path fill-rule="evenodd" clip-rule="evenodd" d="M14.9998 5V7C14.9998 8.65685 13.6566 10 11.9998 10C10.3429 10 8.99976 8.65685 8.99976 7V5C8.99976 3.34315 10.3429 2 11.9998 2C13.6566 2 14.9998 3.34315 14.9998 5ZM6.99976 5C6.99976 2.23858 9.23833 0 11.9998 0C14.7612 0 16.9998 2.23858 16.9998 5V7C16.9998 9.76142 14.7612 12 11.9998 12C9.23833 12 6.99976 9.76142 6.99976 7V5ZM19.9998 18.3789V22H3.99976V18.3789C3.99976 16.4681 5.42873 14.87 7.30868 14.6419C7.36893 14.6699 7.4568 14.716 7.58103 14.7897C7.70326 14.8623 7.80608 14.9277 7.92994 15.0065L7.92995 15.0065L7.9301 15.0066C8.00467 15.054 8.08687 15.1063 8.18551 15.1679C8.40166 15.3029 8.70462 15.4871 9.03027 15.631C9.8272 15.9833 10.8142 16.1429 11.9998 16.1429C13.1853 16.1429 14.1723 15.9833 14.9692 15.631C15.2949 15.4871 15.5979 15.3029 15.814 15.1679C15.9127 15.1062 15.9949 15.0539 16.0695 15.0065L16.0696 15.0065C16.1934 14.9277 16.2962 14.8623 16.4185 14.7897C16.5427 14.716 16.6306 14.6699 16.6908 14.6419C18.5708 14.87 19.9998 16.4681 19.9998 18.3789ZM7.22918 14.6093C7.22847 14.6091 7.22813 14.609 7.22814 14.609C7.22818 14.6091 7.2304 14.6099 7.23472 14.6111C7.23207 14.6102 7.23023 14.6096 7.22918 14.6093ZM16.7714 14.609C16.7713 14.6091 16.7691 14.6099 16.7648 14.6111C16.7692 14.6095 16.7714 14.609 16.7714 14.609ZM1.99976 18.3789C1.99976 15.3695 4.3146 12.8665 7.31476 12.6318C7.85518 12.5895 8.46765 12.9786 9.03611 13.3396C9.31941 13.5196 9.59178 13.6926 9.83886 13.8018C10.2908 14.0015 10.9732 14.1429 11.9998 14.1429C13.0263 14.1429 13.7088 14.0015 14.1606 13.8018C14.4077 13.6926 14.6801 13.5196 14.9634 13.3396L14.9634 13.3396C15.5319 12.9786 16.1443 12.5895 16.6847 12.6318C19.6849 12.8665 21.9998 15.3695 21.9998 18.3789V22.0526C21.9998 23.1281 21.1279 24 20.0524 24H3.94715C2.87164 24 1.99976 23.1281 1.99976 22.0526V18.3789Z" fill="black"></path></svg>